# xmcd CD database file
# Copyright (C) 1997 Ti Kan
# 
# Track frame offsets:
#     150
#     22577
#     41387
#     55090
#     76597
#     96610
#     109727
#     127380
# 
# Disc length: 1949 seconds
# 
# Revision: 1
# Processed by: cddbd v1.4b41PL1 Copyright (c) Steve Scherf et al.
# Submitted via: DiscPlay 4.0.4
# 
DISCID=5c079b08
DTITLE=Johnny Cash - Ride This Train
DYEAR=1900
DGENRE=
TTITLE0=Loading Coal
TTITLE1=Slow Rider
TTITLE2=Lumberjack
TTITLE3=Dorraine Of Ponchartrain
TTITLE4=Going To Memphis
TTITLE5=When Papa Played The Dobro
TTITLE6=Boss Jack
TTITLE7=Old Doc Brown
EXTD=
EXTT0=
EXTT1=
EXTT2=
EXTT3=
EXTT4=
EXTT5=
EXTT6=
EXTT7=
PLAYORDER=
